<svg xmlns="http://www.w3.org/2000/svg" version="1.1" xmlns:xlink="http://www.w3.org/1999/xlink" xmlns:svgjs="http://svgjs.dev/svgjs" width="2000" height="772" viewBox="0 0 2000 772"><g transform="matrix(1,0,0,1,-1.2121212121213603,-0.016201850848858612)"><svg viewBox="0 0 396 153" data-background-color="#ffffff" preserveAspectRatio="xMidYMid meet" height="772" width="2000" xmlns="http://www.w3.org/2000/svg" xmlns:xlink="http://www.w3.org/1999/xlink"><g id="tight-bounds" transform="matrix(1,0,0,1,0.24000000000003752,0.0032109885749633804)"><svg viewBox="0 0 395.5199999999999 152.99357802285007" height="152.99357802285007" width="395.5199999999999"><g><svg viewBox="0 0 395.52000000000004 152.9935780228501" height="152.99357802285007" width="395.5199999999999"><g transform="matrix(1,0,0,1,0,94.55616901606416)"><svg viewBox="0 0 395.52000000000004 58.43740900678593" height="58.43740900678593" width="395.52000000000004"><g id="textblocktransform"><svg viewBox="0 0 395.52000000000004 58.43740900678593" height="58.43740900678593" width="395.52000000000004" id="textblock"><g><svg viewBox="0 0 395.52000000000004 58.43740900678593" height="58.43740900678593" width="395.52000000000004"><g transform="matrix(1,0,0,1,0,0)"><svg width="395.52000000000004" viewBox="2.45 -35.5 324.17 47.9" height="58.43740900678593" data-palette-color="#001f3f"><path d="M18.65 0.5L18.65 0.5Q13.45 0.5 9.83-1.85 6.2-4.2 4.33-8.28 2.45-12.35 2.45-17.5L2.45-17.5Q2.45-22.75 4.4-26.8 6.35-30.85 10.08-33.18 13.8-35.5 19.05-35.5L19.05-35.5Q23.15-35.5 26.23-34.13 29.3-32.75 31.03-30.18 32.75-27.6 32.85-24L32.85-24 28.15-24Q28-26.8 26.65-28.5 25.3-30.2 23.25-30.98 21.2-31.75 18.85-31.75L18.85-31.75Q13.45-31.75 10.38-27.98 7.3-24.2 7.3-17.5L7.3-17.5Q7.3-10.85 10.25-7.05 13.2-3.25 18.65-3.25L18.65-3.25Q21.05-3.25 23.15-4.08 25.25-4.9 26.63-6.73 28-8.55 28.15-11.5L28.15-11.5 32.9-11.5Q32.8-7.8 30.8-5.1 28.8-2.4 25.6-0.95 22.4 0.5 18.65 0.5ZM49.55 0.5L49.55 0.5Q45.8 0.5 43.05-1.25 40.3-3 38.8-6.05 37.3-9.1 37.3-13L37.3-13Q37.3-16.9 38.8-19.95 40.3-23 43.05-24.75 45.8-26.5 49.55-26.5L49.55-26.5Q53.35-26.5 56.07-24.75 58.8-23 60.3-19.95 61.8-16.9 61.8-13L61.8-13Q61.8-9.1 60.3-6.05 58.8-3 56.07-1.25 53.35 0.5 49.55 0.5ZM49.55-3L49.55-3Q53.2-3 55.12-5.78 57.05-8.55 57.05-13L57.05-13Q57.05-17.45 55.12-20.23 53.2-23 49.55-23L49.55-23Q45.9-23 43.97-20.23 42.05-17.45 42.05-13L42.05-13Q42.05-8.55 43.97-5.78 45.9-3 49.55-3ZM77.2 0.5L77.2 0.5Q73.7 0.5 71.25-1.28 68.8-3.05 67.52-6.13 66.25-9.2 66.25-13.05L66.25-13.05Q66.25-16.85 67.52-19.88 68.8-22.9 71.25-24.7 73.7-26.5 77.2-26.5L77.2-26.5Q82.65-26.5 85.3-22.5L85.3-22.5 85.3-35 89.8-35 89.8 0 85.55 0 85.55-3.9Q82.95 0.5 77.2 0.5ZM78.25-3L78.25-3Q81.45-3 83.52-5.28 85.59-7.55 85.59-13L85.59-13Q85.59-18.45 83.52-20.73 81.45-23 78.25-23L78.25-23Q74.34-23 72.62-20.2 70.9-17.4 70.9-13.05L70.9-13.05Q70.9-8.3 72.72-5.65 74.55-3 78.25-3ZM108.39 0.5L108.39 0.5Q104.64 0.5 101.87-1.15 99.09-2.8 97.59-5.85 96.09-8.9 96.09-13L96.09-13Q96.09-17.15 97.59-20.18 99.09-23.2 101.79-24.85 104.49-26.5 108.09-26.5L108.09-26.5Q113.44-26.5 116.39-23.15 119.34-19.8 119.34-13.85L119.34-13.85 119.34-12.2 100.69-12.2Q100.89-7.75 102.87-5.38 104.84-3 108.39-3L108.39-3Q111.09-3 112.69-4.45 114.29-5.9 114.49-8.5L114.49-8.5 118.99-8.5Q118.94-5.9 117.52-3.88 116.09-1.85 113.74-0.68 111.39 0.5 108.39 0.5ZM108.09-23L108.09-23Q105.14-23 103.27-21.13 101.39-19.25 100.89-15.7L100.89-15.7 114.84-15.7Q114.64-19.1 112.92-21.05 111.19-23 108.09-23ZM144.09 0.5L144.09 0.5Q139.74 0.5 136.91-1.38 134.09-3.25 133.84-7.4L133.84-7.4 138.54-7.4Q138.54-5.25 140.06-4.08 141.59-2.9 144.14-2.9L144.14-2.9Q146.59-2.9 147.96-3.88 149.34-4.85 149.34-6.8L149.34-6.8Q149.34-9.65 146.09-10.5L146.09-10.5 140.99-11.85Q137.69-12.7 136.04-14.33 134.39-15.95 134.39-19L134.39-19Q134.39-21.1 135.59-22.8 136.79-24.5 138.96-25.5 141.14-26.5 144.04-26.5L144.04-26.5Q147.34-26.5 149.41-25.48 151.49-24.45 152.54-22.75 153.59-21.05 153.64-19.1L153.64-19.1 149.14-19.1Q148.99-20.75 147.81-21.93 146.64-23.1 143.99-23.1L143.99-23.1Q141.59-23.1 140.21-22.1 138.84-21.1 138.84-19.4L138.84-19.4Q138.84-17.6 139.96-16.85 141.09-16.1 142.44-15.75L142.44-15.75 147.39-14.45Q150.89-13.55 152.34-11.95 153.79-10.35 153.79-7.65L153.79-7.65Q153.79-3.9 151.16-1.7 148.54 0.5 144.09 0.5ZM164.64 0L160.14 0 160.14-26 164.39-26 164.39-22.15Q165.74-24.5 167.94-25.5 170.14-26.5 172.44-26.5L172.44-26.5Q176.69-26.5 179.21-24.23 181.74-21.95 181.74-17L181.74-17 181.74 0 177.24 0 177.24-16Q177.24-19.9 175.66-21.38 174.09-22.85 171.59-22.85L171.59-22.85Q169.74-22.85 168.16-22.15 166.59-21.45 165.61-19.75 164.64-18.05 164.64-15.05L164.64-15.05 164.64 0ZM194.13 0L189.63 0 189.63-26 194.13-26 194.13 0ZM191.88-29.15L191.88-29.15Q190.63-29.15 189.78-29.98 188.93-30.8 188.93-32.1L188.93-32.1Q188.93-33.4 189.78-34.2 190.63-35 191.88-35L191.88-35Q193.08-35 193.93-34.2 194.78-33.4 194.78-32.1L194.78-32.1Q194.78-30.8 193.93-29.98 193.08-29.15 191.88-29.15ZM206.83 12.4L202.33 12.4 202.33-26 206.58-26 206.58-22.1Q209.18-26.5 214.93-26.5L214.93-26.5Q218.48-26.5 220.91-24.73 223.33-22.95 224.61-19.88 225.88-16.8 225.88-12.95L225.88-12.95Q225.88-9.2 224.61-6.15 223.33-3.1 220.91-1.3 218.48 0.5 214.93 0.5L214.93 0.5Q209.48 0.5 206.83-3.5L206.83-3.5 206.83 12.4ZM213.88-3L213.88-3Q217.78-3 219.51-5.8 221.23-8.6 221.23-12.95L221.23-12.95Q221.23-17.7 219.41-20.35 217.58-23 213.88-23L213.88-23Q210.68-23 208.61-20.73 206.53-18.45 206.53-13L206.53-13Q206.53-7.55 208.61-5.28 210.68-3 213.88-3ZM236.73 12.4L232.23 12.4 232.23-26 236.48-26 236.48-22.1Q239.08-26.5 244.83-26.5L244.83-26.5Q248.38-26.5 250.8-24.73 253.23-22.95 254.5-19.88 255.78-16.8 255.78-12.95L255.78-12.95Q255.78-9.2 254.5-6.15 253.23-3.1 250.8-1.3 248.38 0.5 244.83 0.5L244.83 0.5Q239.38 0.5 236.73-3.5L236.73-3.5 236.73 12.4ZM243.78-3L243.78-3Q247.68-3 249.4-5.8 251.13-8.6 251.13-12.95L251.13-12.95Q251.13-17.7 249.3-20.35 247.48-23 243.78-23L243.78-23Q240.58-23 238.5-20.73 236.43-18.45 236.43-13L236.43-13Q236.43-7.55 238.5-5.28 240.58-3 243.78-3ZM272.53 0.5L272.53 0.5Q268.78 0.5 266-1.15 263.23-2.8 261.73-5.85 260.23-8.9 260.23-13L260.23-13Q260.23-17.15 261.73-20.18 263.23-23.2 265.93-24.85 268.63-26.5 272.23-26.5L272.23-26.5Q277.58-26.5 280.53-23.15 283.48-19.8 283.48-13.85L283.48-13.85 283.48-12.2 264.83-12.2Q265.03-7.75 267-5.38 268.98-3 272.53-3L272.53-3Q275.23-3 276.83-4.45 278.43-5.9 278.63-8.5L278.63-8.5 283.13-8.5Q283.08-5.9 281.65-3.88 280.23-1.85 277.88-0.68 275.53 0.5 272.53 0.5ZM272.23-23L272.23-23Q269.28-23 267.4-21.13 265.53-19.25 265.03-15.7L265.03-15.7 278.98-15.7Q278.78-19.1 277.05-21.05 275.33-23 272.23-23ZM303.02 0L298.02 0Q295.82 0 294.4-0.58 292.97-1.15 292.3-2.63 291.62-4.1 291.62-6.8L291.62-6.8 291.62-22.5 286.62-22.5 286.62-26 291.62-26 291.62-32.45 296.12-32.45 296.12-26 303.02-26 303.02-22.5 296.12-22.5 296.12-7.15Q296.12-5.45 296.45-4.67 296.77-3.9 297.52-3.7 298.27-3.5 299.47-3.5L299.47-3.5 303.02-3.5 303.02 0ZM316.92 0.5L316.92 0.5Q312.57 0.5 309.75-1.38 306.92-3.25 306.67-7.4L306.67-7.4 311.37-7.4Q311.37-5.25 312.9-4.08 314.42-2.9 316.97-2.9L316.97-2.9Q319.42-2.9 320.8-3.88 322.17-4.85 322.17-6.8L322.17-6.8Q322.17-9.65 318.92-10.5L318.92-10.5 313.82-11.85Q310.52-12.7 308.87-14.33 307.22-15.95 307.22-19L307.22-19Q307.22-21.1 308.42-22.8 309.62-24.5 311.8-25.5 313.97-26.5 316.87-26.5L316.87-26.5Q320.17-26.5 322.25-25.48 324.32-24.45 325.37-22.75 326.42-21.05 326.47-19.1L326.47-19.1 321.97-19.1Q321.82-20.75 320.65-21.93 319.47-23.1 316.82-23.1L316.82-23.1Q314.42-23.1 313.05-22.1 311.67-21.1 311.67-19.4L311.67-19.4Q311.67-17.6 312.8-16.85 313.92-16.1 315.27-15.75L315.27-15.75 320.22-14.45Q323.72-13.55 325.17-11.95 326.62-10.35 326.62-7.65L326.62-7.65Q326.62-3.9 324-1.7 321.37 0.5 316.92 0.5Z" opacity="1" transform="matrix(1,0,0,1,0,0)" fill="#ffffff" class="wordmark-text-0" data-fill-palette-color="primary" id="text-0"></path></svg></g></svg></g></svg></g></svg></g><g transform="matrix(1,0,0,1,149.37975037631094,0)"><svg viewBox="0 0 96.76049924737816 80.76049924737816" height="80.76049924737816" width="96.76049924737816"><g><svg xmlns="http://www.w3.org/2000/svg" xmlns:xlink="http://www.w3.org/1999/xlink" version="1.1" x="8" y="0" viewBox="64 64 384 384" enable-background="new 0 0 512 512" xml:space="preserve" height="80.76049924737816" width="80.76049924737816" class="icon-icon-0" data-fill-palette-color="accent" id="icon-0"><g fill="#111111" data-fill-palette-color="accent"><g fill="#111111" data-fill-palette-color="accent"><path d="M192 64c-40.646 0-72.483 11.229-94.627 33.373C75.229 119.517 64 151.354 64 192v256h160V192h-96c0-23.056 4.922-39.666 14.627-49.373C152.334 132.922 168.944 128 192 128" fill="#ffffff" data-fill-palette-color="accent"></path></g><g fill="#111111" data-fill-palette-color="accent"><path d="M416 64c-40.646 0-72.483 11.229-94.627 33.373C299.229 119.517 288 151.354 288 192v256h160V192h-96c0-23.056 4.922-39.666 14.627-49.373C376.334 132.922 392.944 128 416 128" fill="#ffffff" data-fill-palette-color="accent"></path></g></g></svg></g></svg></g><g><rect width="149.37975037631088" height="5.269945851638051" y="74.49055339574011" x="246.1402496236891" fill="#ffffff" data-fill-palette-color="accent"></rect><rect width="149.37975037631088" height="5.269945851638051" y="74.49055339574011" x="5.684341886080802e-14" fill="#ffffff" data-fill-palette-color="accent"></rect><rect width="149.37975037631088" height="5.269945851638051" y="63.95066169246401" x="246.1402496236891" fill="#ffffff" data-fill-palette-color="accent"></rect><rect width="149.37975037631088" height="5.269945851638051" y="63.95066169246401" x="5.684341886080802e-14" fill="#ffffff" data-fill-palette-color="accent"></rect></g></svg></g><defs></defs></svg><rect width="395.5199999999999" height="152.99357802285007" fill="none" stroke="none" visibility="hidden"></rect></g></svg></g></svg>